<svg width="66" height="29" viewBox="0 0 66 29" fill="none" xmlns="http://www.w3.org/2000/svg">
<path d="M9.56 28.512C10.6373 28.512 11.6507 28.3573 12.6 28.048C13.5493 27.7493 14.3333 27.3707 14.952 26.912L13.272 23.6C12.5147 24.1867 11.5333 24.48 10.328 24.48C9.37867 24.48 8.54133 24.272 7.816 23.856C7.10133 23.44 6.54667 22.88 6.152 22.176C5.75733 21.4613 5.56 20.672 5.56 19.808C5.56 19.0187 5.74133 18.2667 6.104 17.552C6.47733 16.8373 7.016 16.256 7.72 15.808C8.424 15.36 9.28267 15.136 10.296 15.136C11.5013 15.136 12.4933 15.4293 13.272 16.016L14.952 12.704C14.3547 12.2347 13.5653 11.8507 12.584 11.552C11.6133 11.2533 10.6 11.104 9.544 11.104C8.232 11.104 7.02133 11.3387 5.912 11.808C4.80267 12.2773 3.83733 12.9173 3.016 13.728C2.19467 14.5387 1.55467 15.4667 1.096 16.512C0.637333 17.5573 0.408 18.6613 0.408 19.824C0.408 21.04 0.648 22.176 1.128 23.232C1.608 24.2773 2.26933 25.1947 3.112 25.984C3.95467 26.7733 4.92533 27.392 6.024 27.84C7.13333 28.288 8.312 28.512 9.56 28.512ZM25.603 28.512C26.723 28.512 27.7683 28.2827 28.739 27.824C29.7203 27.3547 30.5843 26.6933 31.331 25.84V28H36.243V11.616H31.331V13.616C30.6803 12.8267 29.8537 12.2133 28.851 11.776C27.8483 11.328 26.7657 11.104 25.603 11.104C24.0243 11.104 22.6217 11.488 21.395 12.256C20.179 13.0133 19.2243 14.048 18.531 15.36C17.8377 16.6613 17.491 18.1333 17.491 19.776C17.491 21.4613 17.8537 22.9653 18.579 24.288C19.3043 25.6 20.275 26.6347 21.491 27.392C22.7177 28.1387 24.0883 28.512 25.603 28.512ZM27.059 24.336C25.7897 24.336 24.739 23.9093 23.907 23.056C23.075 22.2027 22.659 21.12 22.659 19.808C22.659 18.496 23.075 17.4133 23.907 16.56C24.7497 15.7067 25.8003 15.28 27.059 15.28C28.3283 15.28 29.3737 15.7067 30.195 16.56C31.027 17.4027 31.443 18.4853 31.443 19.808C31.443 21.1307 31.0323 22.2187 30.211 23.072C29.3897 23.9147 28.339 24.336 27.059 24.336ZM42.021 28H46.933V0.48H42.021V28ZM60.3725 28.512C61.4498 28.512 62.4632 28.3573 63.4125 28.048C64.3618 27.7493 65.1458 27.3707 65.7645 26.912L64.0845 23.6C63.3272 24.1867 62.3458 24.48 61.1405 24.48C60.1912 24.48 59.3538 24.272 58.6285 23.856C57.9138 23.44 57.3592 22.88 56.9645 22.176C56.5698 21.4613 56.3725 20.672 56.3725 19.808C56.3725 19.0187 56.5538 18.2667 56.9165 17.552C57.2898 16.8373 57.8285 16.256 58.5325 15.808C59.2365 15.36 60.0952 15.136 61.1085 15.136C62.3138 15.136 63.3058 15.4293 64.0845 16.016L65.7645 12.704C65.1672 12.2347 64.3778 11.8507 63.3965 11.552C62.4258 11.2533 61.4125 11.104 60.3565 11.104C59.0445 11.104 57.8338 11.3387 56.7245 11.808C55.6152 12.2773 54.6498 12.9173 53.8285 13.728C53.0072 14.5387 52.3672 15.4667 51.9085 16.512C51.4498 17.5573 51.2205 18.6613 51.2205 19.824C51.2205 21.04 51.4605 22.176 51.9405 23.232C52.4205 24.2773 53.0818 25.1947 53.9245 25.984C54.7672 26.7733 55.7378 27.392 56.8365 27.84C57.9458 28.288 59.1245 28.512 60.3725 28.512Z" fill="white"/>
</svg>
